<svg id="Ebene_1" data-name="Ebene 1" xmlns="http://www.w3.org/2000/svg" viewBox="0 0 448 512"><defs><style>.cls-1{fill:#dcdde1;}</style></defs><path class="cls-1" d="M332.45,300.45a32,32,0,0,0,0-45.25l-2.68-2.68A143,143,0,0,0,348.29,208H352a32,32,0,0,0,0-64h-3.71a143,143,0,0,0-18.52-44.52l2.68-2.68A32,32,0,0,0,287.2,51.55l-2.68,2.68A142.75,142.75,0,0,0,240,35.71V32a32,32,0,0,0-64,0v3.71a142.75,142.75,0,0,0-44.52,18.52l-2.68-2.68A32,32,0,0,0,83.55,96.8l2.68,2.68A143,143,0,0,0,67.71,144H64a32,32,0,0,0,0,64h3.71a143,143,0,0,0,18.52,44.52l-2.68,2.68a32,32,0,0,0,45.25,45.25l2.68-2.68A142.85,142.85,0,0,0,176,316.29V320a32,32,0,0,0,64,0v-3.71a142.75,142.75,0,0,0,44.52-18.52l2.68,2.68a32,32,0,0,0,45.25,0ZM208,256a80,80,0,1,1,80-80A80.09,80.09,0,0,1,208,256Z" transform="translate(-32 0)"/><path class="cls-1" d="M458,394.31A79.65,79.65,0,0,0,447.11,376a31.8,31.8,0,0,0-52.61-30.36,79.12,79.12,0,0,0-10.5-1.06,79.42,79.42,0,0,0-10.52,1.06A31.79,31.79,0,0,0,320.89,376,79.65,79.65,0,0,0,310,394.31a31.8,31.8,0,0,0,0,60.52,79.3,79.3,0,0,0,10.86,18.32,31.79,31.79,0,0,0,52.63,30.36A78.65,78.65,0,0,0,384,504.57a78.65,78.65,0,0,0,10.48-1.06,31.81,31.81,0,0,0,52.63-30.36A79.65,79.65,0,0,0,458,454.83a31.8,31.8,0,0,0,0-60.52Zm-74,62.26a32,32,0,1,1,32-32A32,32,0,0,1,384,456.57Z" transform="translate(-32 0)"/><circle class="cls-1" cx="176" cy="176" r="48"/></svg>