<?xml version="1.0" encoding="utf-8"?>
<!-- Generator: Adobe Illustrator 24.2.0, SVG Export Plug-In . SVG Version: 6.00 Build 0)  -->
<svg version="1.1" id="Ebene_1" xmlns="http://www.w3.org/2000/svg" xmlns:xlink="http://www.w3.org/1999/xlink" x="0px" y="0px"
	 viewBox="0 0 120 120" style="enable-background:new 0 0 120 120;" xml:space="preserve">
<style type="text/css">
	.st0{fill:#151B26;}
	.st1{fill:#0D1114;}
	.st2{fill:#D4D6D6;}
	.st3{fill:#2D1111;}
	.st4{fill:#D2D7D3;}
	.st5{fill:#151C21;}
	.st6{fill:#EEEEEE;}
	.st7{fill:#1F282D;}
	.st8{opacity:0.2;fill:#FFFFFF;enable-background:new    ;}
	.st9{fill:#F8EDCD;}
	.st10{fill:#EF4836;}
	.st11{fill:#A2A3A3;}
</style>
<path class="st0" d="M16.6,53.4c4.2,2.9,13.9,9,12,15.4c-1.8,6.1-12.4,2-16,1.2C9.1,69.1,5,69.1,2.5,71.9c-3.4,3.7,2,8.1,4.8,9.8
	c6.6,4,15.1,4,21,9.1c3.1,2.7,1.7,6.1-0.1,9c-1.9,2.9-4.6,5.6-4.9,9.2c-0.4,4.2,4.4,7.2,7.7,8.7c9.9,4.3,16.6-3.8,22-11.1
	c7-9.5,16.6-25.1,30.6-18.7c0.6,0.2,1.3,0.3,2,0.3c-9.2-4.2-17.5-2.4-24.6,4.8c-7.1,7.2-11.5,18-20.3,23.6c-5,3.2-11,1.1-14.3-3.6
	c-2.2-3.2-0.2-6.7,1.7-9.5s4.6-5.5,4.4-8.9c-0.3-4.3-6.4-7.2-9.7-8.4C17.7,84.6,3,82.6,3.8,74.4C4.5,67.7,14.5,71,18,71.8
	s10.4,2.2,12.7-2.1c3.2-5.9-8.5-13.5-11.9-15.9C18.2,53.5,16.9,53.6,16.6,53.4z"/>
<path class="st1" d="M102.8,83.8L13,36c-0.4-0.2-0.8,0-1,0.3c0,0,0,0,0,0L3.9,51.7c-0.2,0.4-0.1,0.8,0.3,1c0,0,0,0,0,0l28.7,15.3
	c-0.6-0.2-0.9-0.9-0.6-1.5l0.5-0.9c0.4-0.5,1.1-0.6,1.6-0.3l1.1,0.6c0.6,0.2,0.9,0.9,0.6,1.5l-0.5,0.9c-0.4,0.5-1.1,0.6-1.6,0.3
	l30.1,16c-0.6-0.2-0.9-0.9-0.6-1.5l0.5-0.9c0.4-0.5,1.1-0.6,1.6-0.3l1.1,0.6c0.6,0.2,0.9,0.9,0.6,1.5l-0.5,0.9
	c-0.4,0.5-1.1,0.6-1.6,0.3l28.7,15.3c0.4,0.2,0.8,0.1,1-0.3c0,0,0,0,0,0l8.1-15.3C103.3,84.4,103.1,84,102.8,83.8
	C102.8,83.8,102.8,83.8,102.8,83.8z"/>
<path class="st2" d="M116.8,49.4L33.6,5.2c-0.7-0.4-1.6-0.1-2,0.6L11.1,44.4c-0.4,0.7-0.2,1.6,0.5,2c0,0,0,0,0.1,0l83.2,44.2
	c0.7,0.4,1.6,0.1,2-0.6c0,0,0,0,0-0.1l20.5-38.5C117.8,50.8,117.5,49.9,116.8,49.4C116.8,49.5,116.8,49.5,116.8,49.4z M40,46.2
	C37.1,44.6,36,41,37.5,38c1.6-2.9,5.2-4.1,8.2-2.5s4.1,5.2,2.5,8.2l0,0C46.6,46.6,43,47.7,40,46.2C40,46.2,40,46.2,40,46.2z
	 M79.3,67c-2.9-1.6-4.1-5.2-2.5-8.1c1.6-2.9,5.2-4.1,8.1-2.5c2.9,1.6,4.1,5.2,2.5,8.1c0,0,0,0,0,0C85.8,67.5,82.2,68.6,79.3,67z"/>
<path class="st3" d="M89.9,47.1c-8.1-4.3-18.1-1.2-22.4,6.9C63.2,62,66.2,72,74.3,76.3s18.1,1.2,22.4-6.9S98,51.4,89.9,47.1
	L89.9,47.1z M79.3,67c-2.9-1.6-4.1-5.2-2.5-8.1c1.6-2.9,5.2-4.1,8.1-2.5c2.9,1.6,4.1,5.2,2.5,8.1c0,0,0,0,0,0
	C85.9,67.5,82.2,68.6,79.3,67C79.3,67,79.3,67,79.3,67z"/>
<path class="st3" d="M52.8,22.2c-10.3-5.5-23.1-1.6-28.5,8.7S22.7,54,33,59.5S56,61,61.5,50.8c0,0,0,0,0,0
	C66.9,40.5,63,27.7,52.8,22.2z M40,46.2C37.1,44.6,36,41,37.5,38c1.6-2.9,5.2-4.1,8.2-2.5c2.9,1.6,4.1,5.2,2.5,8.2l0,0
	C46.6,46.6,43,47.7,40,46.2C40,46.2,40,46.2,40,46.2z"/>
<path class="st4" d="M47.5,32.2c-4.8-2.5-10.7-0.7-13.2,4c-2.5,4.8-0.7,10.7,4,13.2s10.7,0.7,13.2-4C54,40.7,52.2,34.8,47.5,32.2z
	 M40,46.2C37.1,44.6,36,41,37.5,38c1.6-2.9,5.2-4.1,8.2-2.5c2.9,1.6,4.1,5.2,2.5,8.2v0C46.6,46.6,43,47.7,40,46.2
	C40,46.2,40,46.2,40,46.2L40,46.2z"/>
<path class="st1" d="M46,34.9c-3.3-1.8-7.4-0.5-9.2,2.8c-1.8,3.3-0.5,7.4,2.8,9.2c3.3,1.8,7.4,0.5,9.2-2.8S49.3,36.6,46,34.9
	L46,34.9z M41.1,45.8l0.7-1.3l-1.3-0.7l-0.7,1.3c-1-0.7-1.7-1.8-2-3l1.4-0.1l-0.1-1.5l-1.4,0.1c0.1-1.5,0.8-2.9,2.1-3.9l0.7,1.3
	l1.3-0.7L41,36c1.2-0.5,2.5-0.5,3.7,0L44,37.2l1.3,0.7l0.7-1.3c1,0.7,1.7,1.8,2,3.1l-1.4,0.1l0.1,1.5l1.4-0.1
	C48,42.7,47.3,44.1,46,45l-0.7-1.3L44,44.5l0.7,1.3C43.6,46.2,42.3,46.2,41.1,45.8z"/>
<circle class="st1" cx="39" cy="48.2" r="0.7"/>
<circle class="st1" cx="46.8" cy="33.5" r="0.7"/>
<circle class="st1" cx="35.6" cy="37" r="0.7"/>
<circle class="st1" cx="50.2" cy="44.8" r="0.7"/>
<path class="st1" d="M35.2,44c-0.4,0.1-0.8-0.1-0.9-0.5c-0.1-0.4,0.1-0.8,0.5-0.9c0,0,0,0,0,0c0.4-0.1,0.8,0.1,0.9,0.5
	C35.8,43.4,35.6,43.9,35.2,44z"/>
<path class="st1" d="M51,39.1c-0.4,0.1-0.8-0.1-0.9-0.5c0,0,0,0,0,0c-0.1-0.4,0.1-0.8,0.5-0.9c0.4-0.1,0.8,0.1,0.9,0.5
	C51.7,38.6,51.4,39,51,39.1z"/>
<path class="st1" d="M39.8,33.1c-0.1-0.4,0.1-0.8,0.4-0.9c0,0,0,0,0.1,0c0.4-0.1,0.8,0.1,0.9,0.5c0.1,0.4-0.1,0.7-0.5,0.9
	C40.3,33.7,39.9,33.5,39.8,33.1C39.8,33.1,39.8,33.1,39.8,33.1z"/>
<path class="st1" d="M44.6,49c-0.1-0.4,0.1-0.8,0.5-1c0.4-0.1,0.8,0.1,1,0.5c0.1,0.4-0.1,0.8-0.5,1c0,0,0,0,0,0
	C45.1,49.6,44.7,49.4,44.6,49z"/>
<path class="st1" d="M34.5,40.8c-0.4,0-0.7-0.4-0.7-0.8c0,0,0,0,0,0c0-0.4,0.4-0.7,0.8-0.7l0,0c0.4,0,0.7,0.4,0.7,0.8
	C35.3,40.5,35,40.8,34.5,40.8C34.5,40.8,34.5,40.8,34.5,40.8z"/>
<path class="st1" d="M51,42.4c-0.4,0-0.7-0.4-0.7-0.8c0,0,0,0,0,0c0-0.4,0.4-0.7,0.8-0.7c0.4,0,0.7,0.4,0.7,0.8l0,0
	C51.8,42.1,51.4,42.4,51,42.4C51,42.4,51,42.4,51,42.4z"/>
<path class="st1" d="M42.9,32.5c0-0.4,0.4-0.7,0.8-0.7c0.4,0,0.7,0.4,0.7,0.8c0,0.4-0.4,0.7-0.8,0.7c0,0,0,0,0,0
	C43.2,33.3,42.9,32.9,42.9,32.5C42.9,32.5,42.9,32.5,42.9,32.5z"/>
<path class="st1" d="M41.3,49c0-0.4,0.4-0.7,0.8-0.7l0,0c0.4,0,0.7,0.4,0.7,0.8c0,0.4-0.4,0.7-0.8,0.7C41.6,49.8,41.3,49.4,41.3,49z
	"/>
<path class="st1" d="M37,34.9c-0.3-0.3-0.2-0.8,0.1-1.1c0.3-0.3,0.8-0.2,1.1,0.1c0.3,0.3,0.2,0.8-0.1,1C37.8,35.3,37.3,35.3,37,34.9
	C37,35,37,34.9,37,34.9z"/>
<path class="st1" d="M47.6,47.7c-0.3-0.3-0.2-0.8,0.1-1.1c0.3-0.3,0.8-0.2,1.1,0.1c0.3,0.3,0.2,0.8-0.1,1
	C48.3,48.1,47.8,48,47.6,47.7C47.6,47.7,47.6,47.7,47.6,47.7z"/>
<path class="st1" d="M48.8,35c0.3-0.3,0.8-0.2,1.1,0.1c0.3,0.3,0.2,0.8-0.1,1.1c-0.3,0.3-0.8,0.2-1.1-0.1
	C48.4,35.7,48.5,35.2,48.8,35z"/>
<path class="st1" d="M36,45.5c0.3-0.3,0.8-0.2,1.1,0.1c0.3,0.3,0.2,0.8-0.1,1.1c-0.3,0.3-0.8,0.2-1-0.1C35.6,46.3,35.7,45.8,36,45.5
	z"/>
<path class="st4" d="M86.7,53.1c-4.8-2.5-10.7-0.7-13.2,4c-2.5,4.8-0.7,10.7,4,13.2c4.8,2.5,10.7,0.7,13.2-4l0,0
	C93.3,61.5,91.5,55.6,86.7,53.1z M79.3,67c-2.9-1.6-4.1-5.2-2.5-8.1c1.6-2.9,5.2-4.1,8.1-2.5c2.9,1.6,4.1,5.2,2.5,8.1c0,0,0,0,0,0
	C85.8,67.5,82.2,68.6,79.3,67L79.3,67z"/>
<path class="st1" d="M85.3,55.7c-3.3-1.8-7.4-0.5-9.2,2.8c-1.8,3.3-0.5,7.4,2.8,9.2c3.3,1.8,7.4,0.5,9.2-2.8
	C89.8,61.6,88.6,57.5,85.3,55.7L85.3,55.7z M80.3,66.7l0.7-1.3l-1.3-0.7L79,66c-1-0.7-1.7-1.8-2-3l1.4-0.1l-0.1-1.5l-1.4,0.1
	c0.1-1.5,0.8-2.9,2.1-3.9l0.7,1.3l1.3-0.7l-0.7-1.3c1.2-0.5,2.5-0.5,3.7,0l-0.7,1.3l1.3,0.7l0.7-1.3c1,0.7,1.7,1.8,2,3.1l-1.4,0.1
	l0.1,1.5l1.4-0.1c-0.1,1.5-0.8,2.9-2.1,3.9l-0.7-1.3l-1.3,0.7l0.7,1.3C82.8,67.1,81.5,67.1,80.3,66.7z"/>
<circle class="st1" cx="78.2" cy="69" r="0.7"/>
<circle class="st1" cx="86" cy="54.4" r="0.7"/>
<circle class="st1" cx="74.8" cy="57.8" r="0.7"/>
<circle class="st1" cx="89.4" cy="65.6" r="0.7"/>
<path class="st1" d="M74.4,64.9c-0.4,0.1-0.8-0.1-1-0.5c-0.1-0.4,0.1-0.8,0.5-1s0.8,0.1,1,0.5c0,0,0,0,0,0
	C75,64.3,74.8,64.7,74.4,64.9z"/>
<path class="st1" d="M90.3,59.9c-0.4,0.1-0.8-0.1-0.9-0.4c0,0,0,0,0-0.1c-0.1-0.4,0.1-0.8,0.5-0.9c0.4-0.1,0.7,0.1,0.9,0.5
	C90.9,59.4,90.7,59.8,90.3,59.9C90.3,59.9,90.3,59.9,90.3,59.9z"/>
<path class="st1" d="M79,53.9c-0.1-0.4,0.1-0.8,0.5-0.9c0.4-0.1,0.8,0.1,0.9,0.5c0.1,0.4-0.1,0.8-0.5,0.9
	C79.5,54.6,79.1,54.4,79,53.9C79,54,79,54,79,53.9z"/>
<path class="st1" d="M83.8,69.9c-0.1-0.4,0.1-0.8,0.5-0.9c0.4-0.1,0.8,0.1,0.9,0.5c0.1,0.4-0.1,0.8-0.5,0.9c0,0,0,0,0,0
	C84.3,70.5,83.9,70.2,83.8,69.9z"/>
<path class="st1" d="M73.8,61.7c-0.4,0-0.7-0.4-0.7-0.8c0-0.4,0.4-0.7,0.8-0.7c0.4,0,0.7,0.4,0.7,0.8C74.6,61.4,74.2,61.7,73.8,61.7
	C73.8,61.7,73.8,61.7,73.8,61.7z"/>
<path class="st1" d="M90.3,63.3c-0.4,0-0.7-0.4-0.7-0.8c0-0.4,0.4-0.7,0.8-0.7c0.4,0,0.7,0.4,0.7,0.8C91,63,90.7,63.3,90.3,63.3
	L90.3,63.3z"/>
<path class="st1" d="M82.1,53.4c0-0.4,0.4-0.7,0.8-0.7c0.4,0,0.7,0.4,0.7,0.8s-0.4,0.7-0.8,0.7c0,0,0,0,0,0
	C82.4,54.2,82.1,53.8,82.1,53.4C82.1,53.4,82.1,53.4,82.1,53.4z"/>
<path class="st1" d="M80.6,69.9c0-0.4,0.3-0.8,0.7-0.8c0.4,0,0.8,0.3,0.8,0.7c0,0.1,0,0.1,0,0.2c-0.1,0.4-0.5,0.7-0.9,0.6
	C80.8,70.5,80.6,70.2,80.6,69.9z"/>
<path class="st1" d="M76.2,55.8C76,55.5,76,55,76.3,54.8s0.8-0.2,1.1,0.1c0.3,0.3,0.2,0.8-0.1,1C77,56.2,76.5,56.1,76.2,55.8
	C76.2,55.8,76.2,55.8,76.2,55.8z"/>
<path class="st1" d="M86.8,68.6c-0.3-0.3-0.2-0.8,0.1-1c0,0,0,0,0,0c0.3-0.3,0.8-0.2,1.1,0.1c0.3,0.3,0.2,0.8-0.1,1.1
	C87.5,68.9,87.1,68.9,86.8,68.6z"/>
<path class="st1" d="M88,55.8c0.3-0.3,0.8-0.2,1.1,0.1c0.3,0.3,0.2,0.8-0.1,1.1l0,0c-0.3,0.3-0.8,0.2-1.1-0.1c0,0,0,0,0,0
	C87.7,56.7,87.7,56.2,88,55.8C88,55.9,88,55.9,88,55.8z"/>
<path class="st1" d="M75.2,66.4c0.3-0.3,0.8-0.2,1.1,0.1c0.3,0.3,0.2,0.8-0.1,1.1c-0.3,0.3-0.8,0.2-1-0.1
	C74.9,67.2,74.9,66.7,75.2,66.4C75.2,66.4,75.2,66.4,75.2,66.4z"/>
<path class="st5" d="M117.8,47.4L34.7,3.2c-1.8-1-4.1-0.3-5.1,1.6L3.1,54.7c-1,1.8-0.3,4.1,1.6,5.1L87.8,104c1.8,1,4.1,0.3,5.1-1.6
	l26.5-49.9C120.4,50.7,119.7,48.4,117.8,47.4z M23.7,68.2c-1.1-0.7-1.4-2.1-0.7-3.1c0.6-0.9,1.8-1.3,2.8-0.9c1.2,0.5,1.7,1.8,1.2,3
	c-0.5,1.2-1.8,1.7-3,1.2C23.9,68.3,23.8,68.2,23.7,68.2z M37.5,38c1.6-2.9,5.2-4.1,8.2-2.5c2.9,1.6,4.1,5.2,2.5,8.2S43,47.7,40,46.2
	c0,0,0,0,0,0C37.1,44.6,36,41,37.5,38C37.5,38,37.5,38,37.5,38z M35.5,68.2c-0.4,0.5-1.1,0.6-1.6,0.3l-1.1-0.6
	c-0.6-0.2-0.9-0.9-0.6-1.5l0.5-0.9c0.4-0.5,1.1-0.6,1.6-0.3l1.1,0.6c0.6,0.2,0.9,0.9,0.6,1.5L35.5,68.2z M70.6,64.1L47.3,51.7
	l7.1-13.3l23.3,12.4L70.6,64.1z M66.8,84.9c-0.4,0.5-1.1,0.6-1.6,0.3l-1.1-0.6c-0.6-0.2-0.9-0.9-0.6-1.5l0.5-0.9
	c0.4-0.5,1.1-0.6,1.6-0.3l1.1,0.6c0.6,0.2,0.9,0.9,0.6,1.5L66.8,84.9z M76.8,58.9c1.6-2.9,5.2-4.1,8.2-2.5c2.9,1.6,4.1,5.2,2.5,8.2
	c-1.6,2.9-5.2,4.1-8.2,2.5c0,0,0,0,0,0C76.3,65.5,75.2,61.8,76.8,58.9z M70.2,92.9c-1.1-0.6-1.5-2-1-3.1c0.6-1.1,2-1.5,3.1-1
	c1.1,0.6,1.5,2,1,3.1c0,0,0,0,0,0C72.6,93.1,71.3,93.5,70.2,92.9z"/>
<path class="st6" d="M31.6,5.9c-0.3,0.6-0.2,1.4,0.4,1.9l1.4-2.6C32.7,4.9,31.9,5.2,31.6,5.9z M33.8,5.4L32.5,8
	c0.7,0.4,1.6,0.1,2-0.6S34.5,5.8,33.8,5.4z"/>
<path class="st6" d="M114.7,50.1c-0.3,0.6-0.2,1.4,0.4,1.9l1.4-2.6C115.8,49.1,115.1,49.4,114.7,50.1z M117,49.6l-1.4,2.6
	c0.7,0.4,1.6,0.1,2-0.6C118,50.9,117.7,50,117,49.6z"/>
<path class="st6" d="M5.1,55.8c-0.3,0.6-0.2,1.4,0.4,1.9L6.8,55C6.1,54.8,5.4,55.1,5.1,55.8z M7.3,55.3l-1.4,2.6
	c0.7,0.4,1.6,0.1,2-0.6C8.3,56.6,8,55.7,7.3,55.3z"/>
<path class="st6" d="M88.2,100c-0.3,0.6-0.2,1.4,0.4,1.9l1.4-2.6C89.3,99,88.5,99.3,88.2,100z M90.5,99.5l-1.4,2.6
	c0.7,0.4,1.6,0.1,2-0.6C91.5,100.8,91.2,99.9,90.5,99.5z"/>
<path class="st7" d="M80.4,85.5c0.2-0.8-0.2-1.7-0.9-2.1L26.3,55.1c-0.8-0.4-1.7-0.2-2.3,0.4l-8.4,10.1l61.2,32.5L80.4,85.5z
	 M23.7,68.2c-1.1-0.7-1.4-2.1-0.7-3.1c0.6-0.9,1.8-1.3,2.8-0.9c1.2,0.5,1.7,1.8,1.2,3c-0.5,1.2-1.8,1.7-3,1.2
	C23.9,68.3,23.8,68.2,23.7,68.2z M35.6,68.2c-0.4,0.5-1.1,0.6-1.6,0.3l-1.1-0.6c-0.6-0.2-0.9-0.9-0.6-1.5l0.5-0.9
	c0.4-0.5,1.1-0.6,1.6-0.3l1.1,0.6c0.6,0.2,0.9,0.9,0.6,1.5L35.6,68.2z M66.8,84.9c-0.4,0.5-1.1,0.6-1.6,0.3l-1.1-0.6
	c-0.6-0.2-0.9-0.9-0.6-1.5l0.5-0.9c0.4-0.5,1.1-0.6,1.6-0.3l1.1,0.6c0.6,0.2,0.9,0.9,0.6,1.5L66.8,84.9z M70.2,92.9
	c-1.1-0.6-1.5-2-1-3.1c0.6-1.1,2-1.5,3.1-1c1.1,0.6,1.5,2,1,3.1c0,0,0,0,0,0C72.6,93.1,71.3,93.5,70.2,92.9z"/>
<path class="st8" d="M23.7,56.2c0.6-0.6,1.5-0.8,2.3-0.4l53.2,28.3c0.8,0.4,1.1,1.3,0.9,2.1l-3.4,11.9l0.1,0.1l3.6-12.6
	c0.2-0.8-0.2-1.7-0.9-2.1L26.3,55.1c-0.8-0.4-1.7-0.2-2.3,0.4l-8.4,10.1l0.1,0.1L23.7,56.2z"/>
<path class="st6" d="M49.9,71.8c-0.3,0.6-0.2,1.4,0.4,1.9l1.4-2.6C51,70.9,50.2,71.2,49.9,71.8z M52.2,71.4L50.8,74
	c0.7,0.4,1.6,0.1,2-0.6C53.1,72.6,52.9,71.8,52.2,71.4z"/>
<path class="st9" d="M112.1,48.6l-75.1-40l-6.1,1.9L12.1,45.8L95.2,90l18.7-35.2L112.1,48.6z M39.7,46.8c-3.3-1.8-4.6-5.9-2.8-9.2
	c1.8-3.3,5.9-4.6,9.2-2.8c3.3,1.8,4.6,5.9,2.8,9.2l0,0C47.1,47.3,43,48.6,39.7,46.8z M70.6,62.4l-22-11.7l5.7-10.6l22,11.7
	L70.6,62.4z M78.9,67.7c-3.3-1.8-4.6-5.9-2.8-9.2s5.9-4.6,9.2-2.8c3.3,1.8,4.6,5.9,2.8,9.2l0,0C86.3,68.2,82.2,69.4,78.9,67.7z"/>
<path class="st5" d="M85.6,55.1L46.4,34.2c-3.8-1.8-8.3-0.2-10,3.6c-1.7,3.5-0.4,7.8,3,9.7l39.2,20.9c3.8,1.8,8.3,0.2,10-3.6
	C90.3,61.3,89,57,85.6,55.1z M40,46.2C37.1,44.6,36,41,37.5,38c1.6-2.9,5.2-4.1,8.2-2.5s4.1,5.2,2.5,8.2l0,0
	C46.6,46.6,43,47.7,40,46.2C40,46.2,40,46.2,40,46.2z M71,60.1c-0.4,0.7-1.3,1-2,0.6l-18-9.6c-0.7-0.4-1-1.3-0.6-2l3.5-6.7
	c0.4-0.7,1.3-1,2-0.6l18,9.6c0.7,0.4,1,1.3,0.6,2L71,60.1z M79.3,67c-2.9-1.6-4.1-5.2-2.5-8.1c1.6-2.9,5.2-4.1,8.1-2.5
	c2.9,1.6,4.1,5.2,2.5,8.1c0,0,0,0,0,0C85.9,67.5,82.2,68.6,79.3,67C79.3,67,79.3,67,79.3,67L79.3,67z"/>
<path class="st10" d="M103.7,73.9l0.8-1.4l-15.4-8.2c-0.2,0.3-0.3,0.6-0.5,0.9c-0.2,0.3-0.2,0.4-0.3,0.6L103.7,73.9z M21.4,28.3
	l-0.8,1.4L36,37.9c0.1-0.2,0.2-0.4,0.3-0.6c0.1-0.2,0.3-0.6,0.5-0.9L21.4,28.3z M35.8,43.4c-0.4-1-0.5-2-0.5-3l-15.9-8.5l-1.2,2.2
	L35.8,43.4z M106.2,69.4l0.4-0.7l-17.2-9.1c0.1,0.3,0.2,0.6,0.2,1L106.2,69.4z M40.6,33.7l-17.2-9.2L23,25.2L39.7,34
	C40,33.9,40.3,33.8,40.6,33.7L40.6,33.7z M83.9,69l17.5,9.3l1.2-2.2l-15.9-8.5C85.9,68.3,84.9,68.8,83.9,69z M78.6,68.4L39.3,47.5
	c-0.7-0.3-1.2-0.8-1.8-1.3l-20-10.6L16,38.5l83.1,44.2l1.6-2.9l-20-10.6C79.9,69,79.2,68.7,78.6,68.4z M12.1,45.8L95.2,90l3.2-6
	L15.3,39.8L12.1,45.8z"/>
<rect x="54.1" y="48.1" transform="matrix(0.4695 -0.8829 0.8829 0.4695 -12.4639 76.1731)" class="st11" width="6" height="0.7"/>
<rect x="56.8" y="49.5" transform="matrix(0.4695 -0.8829 0.8829 0.4695 -12.3014 79.2749)" class="st11" width="6" height="0.7"/>
<rect x="59.5" y="50.9" transform="matrix(0.4695 -0.8829 0.8829 0.4695 -12.1388 82.3766)" class="st11" width="6" height="0.7"/>
<rect x="62.1" y="52.3" transform="matrix(0.4695 -0.8829 0.8829 0.4695 -11.9763 85.4784)" class="st11" width="6" height="0.7"/>
<rect x="64.8" y="53.7" transform="matrix(0.4695 -0.8829 0.8829 0.4695 -11.8145 88.5652)" class="st11" width="6" height="0.7"/>
<rect x="71.2" y="4.7" transform="matrix(0.4695 -0.8829 0.8829 0.4695 7.4205 81.3516)" class="st5" width="0.4" height="59.5"/>
<rect x="68.7" y="9.4" transform="matrix(0.4695 -0.8829 0.8829 0.4695 1.9999 81.6357)" class="st5" width="0.4" height="59.5"/>
<path class="st5" d="M36.8,12.9l5.9,3.1c0.9,0.5,1.3,1.7,0.8,2.6l-3.1,5.9c-0.5,0.9-1.7,1.3-2.6,0.8l-5.9-3.1
	c-0.9-0.5-1.3-1.7-0.8-2.6l3.1-5.9C34.8,12.8,35.9,12.4,36.8,12.9z"/>
<path class="st9" d="M37.6,20.8l-1.8-0.9l-1.2,1.2l-0.6-0.3l4.2-3.9l0.7,0.4l-0.9,5.7l-0.6-0.3L37.6,20.8z M37.7,20.2l0.2-0.9
	c0.1-0.6,0.2-1.2,0.4-1.9l0,0c-0.4,0.5-0.9,0.9-1.3,1.4l-0.6,0.6L37.7,20.2z"/>
<path class="st9" d="M92.6,83c0-0.3-0.2-0.5-0.5-0.6c-0.5-0.3-1.2-0.1-1.9,1.1c0.4-0.2,0.8-0.2,1.1,0c0.6,0.3,0.9,0.9,0.6,1.5
	c0,0.1-0.1,0.2-0.1,0.2c-0.3,0.7-1,1-1.7,0.8c0,0-0.1,0-0.1-0.1c-0.7-0.4-1-1.3-0.3-2.5c0.8-1.5,1.8-1.8,2.6-1.4
	c0.4,0.2,0.6,0.5,0.7,0.9L92.6,83z M91.4,85c0.3-0.5,0.2-0.9-0.3-1.2c-0.3-0.1-0.7-0.1-1.1,0.1c-0.4,0.7-0.3,1.3,0.2,1.6
	C90.8,85.7,91.1,85.5,91.4,85z"/>
<path class="st9" d="M92.8,84.7c0.7-1.3,1.5-1.7,2.3-1.3s0.9,1.4,0.2,2.7c-0.7,1.3-1.5,1.7-2.4,1.3C92.2,87,92.1,86,92.8,84.7z
	 M94.7,85.8c0.6-1.1,0.5-1.7,0.1-2c-0.5-0.2-1,0.1-1.6,1.2s-0.5,1.8-0.1,2S94.2,86.9,94.7,85.8z"/>
</svg>
