<svg id="Ebene_1" data-name="Ebene 1" xmlns="http://www.w3.org/2000/svg" viewBox="0 0 25.6 20.53"><defs><style>.cls-1{fill:#151b26;}</style></defs><path class="cls-1" d="M22.18,20.06c-5.09-1.58-10.37,1.56-15.61,1.27C4.31,21.2-.34,20.29.5,17c.63-2.5,3.24-3.79,5.54-4.39S16.17,11,15.29,6.73C14.36,2.25,6.56,1.65,3.11,1.28h0c.26,0,1-.48,1.47-.43C7.4,1.15,16.9,2,16.85,6.59c0,3.29-4.48,4.61-7,5.32S.37,13.8,2.13,18.08c2.13,5.16,11.64,1.64,15.32,1.06,2.35-.36,8.1.82,8.52,1.94C26.32,22,23.68,20.52,22.18,20.06Z" transform="translate(-0.4 -0.85)"/></svg>