<svg id="Ebene_1" data-name="Ebene 1" xmlns="http://www.w3.org/2000/svg" viewBox="0 0 70.49 70.27"><defs><style>.cls-1{fill:#151b26;}.cls-2{fill:#0d1114;}.cls-3{fill:#d4d6d6;}.cls-4{fill:#2d1111;}.cls-5{fill:#d2d7d3;}.cls-6{fill:#151c21;}.cls-7{fill:#eee;}.cls-8{fill:#1f282d;}.cls-9{fill:#fff;opacity:0.2;}.cls-10{fill:#f8edcd;}.cls-11{fill:#ef4836;}.cls-12{fill:#a2a3a3;}</style></defs><path class="cls-1" d="M13,37.67c3.46.37,11.26,1,12.19,5.44.88,4.25-6.84,5.21-9.25,5.84s-4.91,1.89-5.54,4.39c-.84,3.34,3.81,4.25,6.07,4.38,5.24.29,10.41-2.46,15.61-1.27,2.73.62,3,3.12,2.81,5.49s-1,4.88,0,7.15c1.12,2.68,5,2.94,7.44,2.74,7.35-.58,8.8-7.62,9.73-13.74,1.2-8,2-20.46,12.48-21.08a5.54,5.54,0,0,0,1.31-.43c-6.92.41-11.37,4.15-13.33,10.77S51.34,61.91,47.87,68.1c-2,3.55-6.29,4.22-9.77,2.38-2.32-1.22-2.26-4-2-6.25s1-4.78-.21-6.76c-1.57-2.52-6.17-2.3-8.52-1.94-3.68.58-13.19,4.1-15.32-1.06-1.77-4.28,5.31-5.5,7.7-6.17s7-2,7-5.32c.05-4.59-9.45-5.44-12.27-5.74-.46-.05-1.21.46-1.48.43Z" transform="translate(-4.76 -1.62)"/><path class="cls-2" d="M74.74,28.37H5.26a.51.51,0,0,0-.5.52V40.72a.5.5,0,0,0,.5.51H27.48a.79.79,0,0,1-.86-.68v-.69a.79.79,0,0,1,.86-.68h.86a.78.78,0,0,1,.85.68v.69a.78.78,0,0,1-.85.68H51.66a.78.78,0,0,1-.85-.68v-.69a.78.78,0,0,1,.85-.68h.86a.79.79,0,0,1,.86.68v.69a.79.79,0,0,1-.86.68H74.74a.5.5,0,0,0,.5-.51V28.89A.51.51,0,0,0,74.74,28.37Z" transform="translate(-4.76 -1.62)"/><path class="cls-3" d="M72.17,3.16H7.83a1,1,0,0,0-1,1V34a1,1,0,0,0,1,1.05H72.17a1,1,0,0,0,1-1.05V4.21A1,1,0,0,0,72.17,3.16ZM24.82,25.8a4.12,4.12,0,1,1,4.12-4.12A4.11,4.11,0,0,1,24.82,25.8Zm30.36,0a4.12,4.12,0,1,1,4.11-4.12A4.12,4.12,0,0,1,55.18,25.8Z" transform="translate(-4.76 -1.62)"/><path class="cls-4" d="M55.18,10.36A11.32,11.32,0,1,0,66.5,21.68,11.32,11.32,0,0,0,55.18,10.36Zm0,15.44a4.12,4.12,0,1,1,4.11-4.12A4.11,4.11,0,0,1,55.18,25.8Z" transform="translate(-4.76 -1.62)"/><path class="cls-4" d="M24.82,7.28a14.41,14.41,0,1,0,14.41,14.4A14.41,14.41,0,0,0,24.82,7.28Zm0,18.52a4.12,4.12,0,1,1,4.12-4.12A4.11,4.11,0,0,1,24.82,25.8Z" transform="translate(-4.76 -1.62)"/><path class="cls-5" d="M24.82,15a6.69,6.69,0,1,0,6.69,6.69A6.7,6.7,0,0,0,24.82,15Zm0,10.81a4.12,4.12,0,1,1,4.12-4.12A4.11,4.11,0,0,1,24.82,25.8Z" transform="translate(-4.76 -1.62)"/><path class="cls-2" d="M24.82,17.05a4.63,4.63,0,1,0,4.63,4.63A4.63,4.63,0,0,0,24.82,17.05Zm.52,8.19v-1h-1v1a3.56,3.56,0,0,1-2.2-1.19l.83-.54-.56-.86-.83.54a3.6,3.6,0,0,1,0-3l.83.54.56-.87-.83-.53a3.57,3.57,0,0,1,2.2-1.2v1h1v-1a3.57,3.57,0,0,1,2.19,1.2l-.83.53.56.87.83-.54a3.6,3.6,0,0,1,0,3l-.83-.54-.56.86.83.54A3.56,3.56,0,0,1,25.34,25.24Z" transform="translate(-4.76 -1.62)"/><circle class="cls-2" cx="20.07" cy="25.73" r="0.51"/><circle class="cls-2" cx="20.07" cy="14.41" r="0.51"/><circle class="cls-2" cx="14.41" cy="20.07" r="0.51"/><circle class="cls-2" cx="25.73" cy="20.07" r="0.51"/><path class="cls-2" d="M21.18,26.05a.51.51,0,0,1-.72,0,.5.5,0,0,1,0-.73.51.51,0,0,1,.72,0A.52.52,0,0,1,21.18,26.05Z" transform="translate(-4.76 -1.62)"/><path class="cls-2" d="M29.19,18a.5.5,0,0,1-.73,0,.51.51,0,0,1,0-.72.52.52,0,0,1,.73,0A.51.51,0,0,1,29.19,18Z" transform="translate(-4.76 -1.62)"/><path class="cls-2" d="M20.46,18a.49.49,0,0,1,0-.72.51.51,0,0,1,.72.72A.49.49,0,0,1,20.46,18Z" transform="translate(-4.76 -1.62)"/><path class="cls-2" d="M28.46,26.05a.52.52,0,1,1,.73,0A.52.52,0,0,1,28.46,26.05Z" transform="translate(-4.76 -1.62)"/><path class="cls-2" d="M19.79,24.33a.51.51,0,0,1-.67-.27.52.52,0,0,1,.28-.68.52.52,0,0,1,.67.28A.51.51,0,0,1,19.79,24.33Z" transform="translate(-4.76 -1.62)"/><path class="cls-2" d="M30.24,20a.51.51,0,0,1-.67-.28.51.51,0,0,1,.95-.39A.51.51,0,0,1,30.24,20Z" transform="translate(-4.76 -1.62)"/><path class="cls-2" d="M22.17,16.66a.52.52,0,1,1,.67.27A.51.51,0,0,1,22.17,16.66Z" transform="translate(-4.76 -1.62)"/><path class="cls-2" d="M26.52,27.11a.52.52,0,0,1,.28-.68.52.52,0,1,1-.28.68Z" transform="translate(-4.76 -1.62)"/><path class="cls-2" d="M19.39,20a.51.51,0,1,1,.67-.28A.5.5,0,0,1,19.39,20Z" transform="translate(-4.76 -1.62)"/><path class="cls-2" d="M29.86,24.31a.51.51,0,1,1,.67-.28A.51.51,0,0,1,29.86,24.31Z" transform="translate(-4.76 -1.62)"/><path class="cls-2" d="M26.5,16.25a.52.52,0,0,1,.67-.28.51.51,0,1,1-.67.28Z" transform="translate(-4.76 -1.62)"/><path class="cls-2" d="M22.19,26.72a.51.51,0,1,1,.28.67A.52.52,0,0,1,22.19,26.72Z" transform="translate(-4.76 -1.62)"/><path class="cls-5" d="M55.18,15a6.69,6.69,0,1,0,6.69,6.69A6.69,6.69,0,0,0,55.18,15Zm0,10.81a4.12,4.12,0,1,1,4.11-4.12A4.12,4.12,0,0,1,55.18,25.8Z" transform="translate(-4.76 -1.62)"/><path class="cls-2" d="M55.18,17.05a4.63,4.63,0,1,0,4.63,4.63A4.63,4.63,0,0,0,55.18,17.05Zm.51,8.19v-1h-1v1a3.56,3.56,0,0,1-2.19-1.19l.83-.54-.56-.86-.83.54a3.6,3.6,0,0,1,0-3l.83.54.56-.87-.83-.53a3.57,3.57,0,0,1,2.19-1.2v1h1v-1a3.57,3.57,0,0,1,2.2,1.2l-.83.53.56.87.83-.54a3.6,3.6,0,0,1,0,3l-.83-.54-.56.86.83.54A3.56,3.56,0,0,1,55.69,25.24Z" transform="translate(-4.76 -1.62)"/><circle class="cls-2" cx="50.42" cy="25.73" r="0.51"/><circle class="cls-2" cx="50.42" cy="14.41" r="0.51"/><circle class="cls-2" cx="44.76" cy="20.07" r="0.51"/><circle class="cls-2" cx="56.08" cy="20.07" r="0.51"/><path class="cls-2" d="M51.54,26.05a.52.52,0,1,1,0-.73A.52.52,0,0,1,51.54,26.05Z" transform="translate(-4.76 -1.62)"/><path class="cls-2" d="M59.54,18a.49.49,0,0,1-.72,0,.51.51,0,0,1,.72-.72A.49.49,0,0,1,59.54,18Z" transform="translate(-4.76 -1.62)"/><path class="cls-2" d="M50.81,18a.51.51,0,0,1,0-.72.52.52,0,0,1,.73,0,.51.51,0,0,1,0,.72A.5.5,0,0,1,50.81,18Z" transform="translate(-4.76 -1.62)"/><path class="cls-2" d="M58.82,26.05a.52.52,0,0,1,0-.73.51.51,0,0,1,.72,0,.5.5,0,0,1,0,.73A.51.51,0,0,1,58.82,26.05Z" transform="translate(-4.76 -1.62)"/><path class="cls-2" d="M50.15,24.33a.51.51,0,1,1,.28-.67A.51.51,0,0,1,50.15,24.33Z" transform="translate(-4.76 -1.62)"/><path class="cls-2" d="M60.6,20a.51.51,0,0,1-.39-.95.51.51,0,1,1,.39.95Z" transform="translate(-4.76 -1.62)"/><path class="cls-2" d="M52.53,16.66a.52.52,0,1,1,.67.27A.51.51,0,0,1,52.53,16.66Z" transform="translate(-4.76 -1.62)"/><path class="cls-2" d="M56.88,27.11a.52.52,0,1,1,.95-.4.52.52,0,0,1-.95.4Z" transform="translate(-4.76 -1.62)"/><path class="cls-2" d="M49.75,20a.51.51,0,1,1,.67-.28A.51.51,0,0,1,49.75,20Z" transform="translate(-4.76 -1.62)"/><path class="cls-2" d="M60.22,24.31a.5.5,0,0,1-.28-.67.51.51,0,1,1,.28.67Z" transform="translate(-4.76 -1.62)"/><path class="cls-2" d="M56.86,16.25a.51.51,0,0,1,1,.39.51.51,0,0,1-.67.28A.5.5,0,0,1,56.86,16.25Z" transform="translate(-4.76 -1.62)"/><path class="cls-2" d="M52.55,26.72a.51.51,0,1,1,.28.67A.51.51,0,0,1,52.55,26.72Z" transform="translate(-4.76 -1.62)"/><path class="cls-6" d="M72.16,1.62H7.84A2.58,2.58,0,0,0,5.27,4.19V42.78a2.58,2.58,0,0,0,2.57,2.57H72.16a2.58,2.58,0,0,0,2.57-2.57V4.19A2.58,2.58,0,0,0,72.16,1.62ZM22,44.32a1.55,1.55,0,0,1,0-3.09,1.55,1.55,0,1,1,0,3.09ZM20.71,21.68a4.12,4.12,0,1,1,4.11,4.12A4.11,4.11,0,0,1,20.71,21.68Zm8.48,18.87a.78.78,0,0,1-.85.68h-.86a.79.79,0,0,1-.86-.68v-.69a.79.79,0,0,1,.86-.68h.86a.78.78,0,0,1,.85.68ZM49,26.83H31V16.54H49Zm4.38,13.72a.79.79,0,0,1-.86.68h-.86a.78.78,0,0,1-.85-.68v-.69a.78.78,0,0,1,.85-.68h.86a.79.79,0,0,1,.86.68ZM51.06,21.68a4.12,4.12,0,1,1,4.12,4.12A4.12,4.12,0,0,1,51.06,21.68ZM58,44.32a1.55,1.55,0,1,1,1.54-1.54A1.55,1.55,0,0,1,58,44.32Z" transform="translate(-4.76 -1.62)"/><path class="cls-7" d="M6.81,4.19a1,1,0,0,0,.82,1v-2A1,1,0,0,0,6.81,4.19ZM8,3.19v2a1,1,0,0,0,0-2Z" transform="translate(-4.76 -1.62)"/><path class="cls-7" d="M71.14,4.19a1,1,0,0,0,.82,1v-2A1,1,0,0,0,71.14,4.19Zm1.23-1v2a1,1,0,0,0,0-2Z" transform="translate(-4.76 -1.62)"/><path class="cls-7" d="M6.81,42.8a1,1,0,0,0,.82,1v-2A1,1,0,0,0,6.81,42.8ZM8,41.8v2a1,1,0,0,0,0-2Z" transform="translate(-4.76 -1.62)"/><path class="cls-7" d="M71.14,42.8a1,1,0,0,0,.82,1v-2A1,1,0,0,0,71.14,42.8Zm1.23-1v2a1,1,0,0,0,0-2Z" transform="translate(-4.76 -1.62)"/><path class="cls-8" d="M61.82,36.58a1.32,1.32,0,0,0-1.24-1H19.42a1.32,1.32,0,0,0-1.24,1l-1.85,8.77H63.67ZM22,44.32a1.55,1.55,0,0,1,0-3.09,1.55,1.55,0,1,1,0,3.09Zm7.2-3.77a.78.78,0,0,1-.85.68h-.86a.79.79,0,0,1-.86-.68v-.69a.79.79,0,0,1,.86-.68h.86a.78.78,0,0,1,.85.68Zm24.19,0a.79.79,0,0,1-.86.68h-.86a.78.78,0,0,1-.85-.68v-.69a.78.78,0,0,1,.85-.68h.86a.79.79,0,0,1,.86.68ZM58,44.32a1.55,1.55,0,1,1,1.54-1.54A1.55,1.55,0,0,1,58,44.32Z" transform="translate(-4.76 -1.62)"/><path class="cls-9" d="M18.18,37.1a1.31,1.31,0,0,1,1.24-1H60.58a1.31,1.31,0,0,1,1.24,1l1.74,8.25h.11l-1.85-8.77a1.32,1.32,0,0,0-1.24-1H19.42a1.32,1.32,0,0,0-1.24,1l-1.85,8.77h.11Z" transform="translate(-4.76 -1.62)"/><path class="cls-7" d="M39,38.12a1,1,0,0,0,.82,1v-2A1,1,0,0,0,39,38.12Zm1.22-1v2a1,1,0,0,0,0-2Z" transform="translate(-4.76 -1.62)"/><path class="cls-10" d="M69.07,4.19H10.93L7.84,7.28V34.55H72.16V7.28ZM24.82,26.31a4.63,4.63,0,1,1,4.63-4.63A4.63,4.63,0,0,1,24.82,26.31Zm23.67-.51h-17V17.57h17Zm6.69.51a4.63,4.63,0,1,1,4.63-4.63A4.63,4.63,0,0,1,55.18,26.31Z" transform="translate(-4.76 -1.62)"/><path class="cls-6" d="M55.18,16.54H24.82a5.15,5.15,0,0,0,0,10.29H55.18a5.15,5.15,0,0,0,0-10.29ZM24.82,25.8a4.12,4.12,0,1,1,4.12-4.12A4.11,4.11,0,0,1,24.82,25.8ZM48,24.26a1,1,0,0,1-1,1H33.05a1,1,0,0,1-1-1V19.11a1,1,0,0,1,1-1H47a1,1,0,0,1,1,1Zm7.2,1.54a4.12,4.12,0,1,1,4.11-4.12A4.12,4.12,0,0,1,55.18,25.8Z" transform="translate(-4.76 -1.62)"/><path class="cls-11" d="M72.16,22.12V21H60.28c0,.22,0,.44,0,.66s0,.3,0,.44ZM7.84,21v1.1H19.7c0-.14,0-.29,0-.44s0-.44,0-.66ZM21.39,25.5a5.1,5.1,0,0,1-1.25-1.69H7.84V25.5Zm50.77-6.9v-.52H58.85a4.47,4.47,0,0,1,.44.52Zm-51-.52H7.84v.52H20.71A4.47,4.47,0,0,1,21.15,18.08ZM58.61,25.5H72.16V23.81H59.86A5.1,5.1,0,0,1,58.61,25.5Zm-3.43,1.33H24.82a5.27,5.27,0,0,1-1.49-.22H7.84v2.28H72.16V26.61H56.67A5.21,5.21,0,0,1,55.18,26.83ZM7.84,34.55H72.16V29.91H7.84Z" transform="translate(-4.76 -1.62)"/><rect class="cls-12" x="30.87" y="18.01" width="0.51" height="4.12"/><rect class="cls-12" x="32.93" y="18.01" width="0.51" height="4.12"/><rect class="cls-12" x="34.99" y="18.01" width="0.51" height="4.12"/><rect class="cls-12" x="37.05" y="18.01" width="0.51" height="4.12"/><rect class="cls-12" x="39.1" y="18.01" width="0.51" height="4.12"/><rect class="cls-6" x="14.92" y="6.95" width="40.65" height="0.26"/><rect class="cls-6" x="14.92" y="10.55" width="40.65" height="0.26"/><rect class="cls-6" x="6.17" y="5.15" width="7.2" height="7.2" rx="1.31"/><path class="cls-10" d="M15.2,11.29H13.84l-.35,1.13H13l1.26-3.71h.53l1.26,3.71h-.5Zm-.12-.38-.18-.57c-.14-.41-.25-.82-.37-1.25h0c-.11.43-.23.84-.36,1.25l-.18.57Z" transform="translate(-4.76 -1.62)"/><path class="cls-10" d="M68.35,31.19a.63.63,0,0,0-.49-.24c-.41,0-.76.32-.78,1.26a.94.94,0,0,1,.69-.37.79.79,0,0,1,.84.91.89.89,0,0,1-.87,1c-.58,0-1-.47-1-1.42,0-1.19.54-1.65,1.13-1.65a.93.93,0,0,1,.71.32Zm-.1,1.56c0-.38-.18-.62-.54-.62a.81.81,0,0,0-.62.38c0,.58.27.89.65.89S68.25,33.14,68.25,32.75Z" transform="translate(-4.76 -1.62)"/><path class="cls-10" d="M69,32.16c0-1,.36-1.53,1-1.53s1,.54,1,1.53-.36,1.54-1,1.54S69,33.15,69,32.16Zm1.53,0c0-.87-.23-1.22-.58-1.22s-.58.35-.58,1.22.24,1.23.58,1.23S70.53,33,70.53,32.16Z" transform="translate(-4.76 -1.62)"/></svg>